# Blender v2.72 (sub 0) OBJ File: 'Skybox.blend'
# www.blender.org
mtllib Skybox.mtl
o Cube_Cube.001
v -1.000000 -1.000000 1.000000
v -1.000000 -1.000000 -1.000000
v 1.000000 -1.000000 -1.000000
v 1.000000 -1.000000 1.000000
v -1.000000 1.000000 1.000000
v -1.000000 1.000000 -1.000000
v 1.000000 1.000000 -1.000000
v 1.000000 1.000000 1.000000
vt 0.000000 0.666000
vt 0.000000 0.333333
vt 0.251000 0.333333
vt 0.750000 0.666000
vt 0.750000 0.333333
vt 1.000000 0.333333
vt 0.499000 0.666000
vt 0.499000 0.333333
vt 0.750000 0.333333
vt 0.251000 0.666000
vt 0.499000 0.333333
vt 0.251000 0.000000
vt 0.499000 0.000000
vt 0.499000 1.000000
vt 0.251000 1.000000
vt 1.000000 0.666000
vt 0.499000 0.666000
vn -1.000000 0.000000 0.000000
vn 0.000000 0.000000 -1.000000
vn 1.000000 0.000000 0.000000
vn 0.000000 0.000000 1.000000
vn 0.000000 -1.000000 0.000000
vn 0.000000 1.000000 0.000000
usemtl None
s off
f 6/1/1 2/2/1 1/3/1
f 7/4/2 3/5/2 2/6/2
f 8/7/3 4/8/3 3/9/3
f 5/10/4 1/3/4 4/11/4
f 2/12/5 3/13/5 4/11/5
f 7/14/6 6/15/6 5/10/6
f 5/10/1 6/1/1 1/3/1
f 6/16/2 7/4/2 2/6/2
f 7/4/3 8/7/3 3/9/3
f 8/17/4 5/10/4 4/11/4
f 1/3/5 2/12/5 4/11/5
f 8/17/6 7/14/6 5/10/6
